<?xml version="1.0" encoding="utf-8"?>
<!-- Generator: Adobe Illustrator 22.0.0, SVG Export Plug-In . SVG Version: 6.00 Build 0)  -->
<svg version="1.1" xmlns="http://www.w3.org/2000/svg" xmlns:xlink="http://www.w3.org/1999/xlink" x="0px" y="0px"
	 viewBox="0 0 32 41" style="enable-background:new 0 0 32 41;" xml:space="preserve">
<style type="text/css">
	.st0{fill:#FF0000;}
	.st1{fill:#FFFFFF;}
	.st2{font-family:'MyriadPro-Regular';}
	.st3{font-size:16.6627px;}
</style>
<g id="Layer_1">
	<g>
		<path class="st0" d="M16.1,40.3C14.1,38,4.8,27.5,3.1,24.8c-1.8-3-2.1-5.1-2.1-8.3c0-8.8,6.8-16,15.1-16c8.5,0,14.9,6.4,14.9,15
			c0,2.9-0.2,5.7-2.1,9.5C27.2,28.2,18,38.1,16.1,40.3z"/>
		<path class="st1" d="M16.1,1c8.4,0,14.4,6.1,14.4,14.5c0,2.9-0.2,5.6-2.1,9.3c-1.6,3-9.8,12-12.4,14.8c-2.5-2.9-10.9-12.4-12.5-15
			c-1.8-2.9-2.1-4.9-2.1-8C1.5,8,8,1,16.1,1 M16.1,0C7.5,0,0.5,7.4,0.5,16.5c0,3.1,0.3,5.4,2.2,8.5c1.9,3.1,13.3,16,13.3,16
			s11.3-12.1,13.3-15.8c1.9-3.7,2.2-6.5,2.2-9.7C31.5,6.3,24.7,0,16.1,0L16.1,0z"/>
	</g>
</g>
<g id="here">
	<text transform="matrix(1 0 0 1 7.2806 19.9468)" class="st1 st2 st3">ICI</text>
</g>
</svg>
